<svg width="24" height="24" viewBox="0 0 24 24" fill="none" xmlns="http://www.w3.org/2000/svg">
<path d="M12 0C9.62663 0 7.30655 0.703788 5.33316 2.02236C3.35977 3.34094 1.8217 5.21508 0.913451 7.4078C0.00519943 9.60051 -0.232441 12.0133 0.230582 14.3411C0.693605 16.6689 1.83649 18.807 3.51472 20.4853C5.19295 22.1635 7.33115 23.3064 9.65892 23.7694C11.9867 24.2324 14.3995 23.9948 16.5922 23.0866C18.7849 22.1783 20.6591 20.6402 21.9776 18.6668C23.2962 16.6935 24 14.3734 24 12C24 10.4241 23.6896 8.86371 23.0866 7.4078C22.4835 5.95189 21.5996 4.62902 20.4853 3.51472C19.371 2.40042 18.0481 1.5165 16.5922 0.913446C15.1363 0.310389 13.5759 0 12 0ZM16.452 14.748C16.5645 14.8596 16.6537 14.9923 16.7147 15.1385C16.7756 15.2847 16.807 15.4416 16.807 15.6C16.807 15.7584 16.7756 15.9153 16.7147 16.0615C16.6537 16.2077 16.5645 16.3404 16.452 16.452C16.3404 16.5645 16.2077 16.6537 16.0615 16.7147C15.9153 16.7756 15.7584 16.807 15.6 16.807C15.4416 16.807 15.2847 16.7756 15.1385 16.7147C14.9923 16.6537 14.8596 16.5645 14.748 16.452L12 13.704L9.252 16.452C9.14045 16.5645 9.00773 16.6537 8.8615 16.7147C8.71526 16.7756 8.55842 16.807 8.4 16.807C8.24159 16.807 8.08474 16.7756 7.93851 16.7147C7.79228 16.6537 7.65956 16.5645 7.548 16.452C7.43553 16.3404 7.34626 16.2077 7.28533 16.0615C7.22441 15.9153 7.19305 15.7584 7.19305 15.6C7.19305 15.4416 7.22441 15.2847 7.28533 15.1385C7.34626 14.9923 7.43553 14.8596 7.548 14.748L10.296 12L7.548 9.252C7.32204 9.02604 7.19509 8.71956 7.19509 8.4C7.19509 8.08044 7.32204 7.77396 7.548 7.548C7.77397 7.32204 8.08044 7.19509 8.4 7.19509C8.71957 7.19509 9.02604 7.32204 9.252 7.548L12 10.296L14.748 7.548C14.974 7.32204 15.2804 7.19509 15.6 7.19509C15.9196 7.19509 16.226 7.32204 16.452 7.548C16.678 7.77396 16.8049 8.08044 16.8049 8.4C16.8049 8.71956 16.678 9.02604 16.452 9.252L13.704 12L16.452 14.748Z" fill="#FFFEFE" fill-opacity="0.66"/>
</svg>
