<svg width="54" height="64" viewBox="0 0 54 64" fill="none" xmlns="http://www.w3.org/2000/svg">
<path d="M53.9942 6.2515V57.7425C53.9942 61.1859 51.1802 64 47.7367 64H6.25203C6.06128 64 5.8704 63.9905 5.68928 63.9714C5.49853 63.9619 5.31728 63.9333 5.13603 63.8951C5.04065 63.8856 4.94528 63.8665 4.8594 63.8379C4.33478 63.7234 3.82928 63.5326 3.37128 63.2846C3.36178 63.2846 3.36178 63.2751 3.36178 63.2751C3.33315 63.2656 3.30453 63.256 3.2854 63.237C3.10415 63.1415 2.9324 63.0366 2.77028 62.9221C2.57003 62.7981 2.37915 62.655 2.20753 62.4929C2.08353 62.3974 1.96903 62.283 1.85465 62.1685C1.63528 61.9586 1.4349 61.7202 1.25365 61.4721C1.1964 61.3959 1.13915 61.31 1.0819 61.2336C0.9484 61.0429 0.824275 60.8426 0.729025 60.6423C0.63365 60.48 0.557275 60.3084 0.490525 60.1367C0.41415 59.965 0.3474 59.7837 0.29015 59.593C0.242525 59.469 0.213775 59.3545 0.185275 59.221C0.15665 59.1161 0.128025 59.0016 0.1089 58.8871C0.0897754 58.7916 0.0802754 58.6869 0.0612754 58.5914C0.0612754 58.5722 0.0517754 58.5531 0.0517754 58.5342C0.0231504 58.2766 0.00415039 58.0095 0.00415039 57.7426V22.42L22.4204 0.00350189H47.7367C48.4712 0.00350189 49.177 0.127377 49.8257 0.375377C51.5999 0.995502 53.0022 2.40725 53.6222 4.17188C53.7462 4.47725 53.832 4.792 53.8893 5.11638C53.9274 5.2975 53.9465 5.48838 53.9657 5.66963C53.9847 5.86025 53.9942 6.06075 53.9942 6.2515Z" fill="#F9DFAE"/>
<path d="M16.1632 22.4185C19.6036 22.4185 22.4185 19.6036 22.4185 16.1632V0L0 22.4185H16.1632Z" fill="#F4D18F"/>
<path opacity="0.1" d="M53.9369 55.9873V57.399C53.9369 60.8331 51.1229 63.647 47.6889 63.647H6.20426C4.83063 63.647 3.55238 63.1988 2.52226 62.4355C1.98813 62.0539 1.53013 61.5865 1.13913 61.0524C0.671758 60.4036 0.318758 59.6691 0.128008 58.8679C0.0993828 58.7819 0.0803828 58.6868 0.0612578 58.5913C0.0612578 58.5721 0.0517578 58.553 0.0517578 58.5341L0.366508 58.229C0.404633 58.3242 0.442883 58.4198 0.481008 58.5151C1.46351 60.6995 3.66701 62.2449 6.20438 62.2449H47.6891C51.123 62.2449 53.9369 59.4309 53.9369 55.9873Z" fill="#040000"/>
<path d="M28.51 31.1841C28.51 31.1841 45.0149 25.1348 47.6316 16.33C50.2483 7.52519 38.0708 23.7572 38.0708 23.7572C38.0708 23.7572 39.8744 20.4484 36.7979 20.0243C33.7218 19.6003 28.51 31.1841 28.51 31.1841Z" fill="#79D720"/>
<path d="M38.6069 23.0535C38.2685 23.4937 38.0708 23.7572 38.0708 23.7572C38.0708 23.7572 38.1363 23.6367 38.2208 23.4396L31.9136 29.747C36.8915 27.4565 45.7713 22.5903 47.6318 16.3303C48.0667 14.8665 48.0912 14.0979 47.8323 13.8284L38.6069 23.0535Z" fill="#66B31B"/>
<path d="M28.9965 31.8409C28.9965 31.8409 39.0214 21.3663 37.8975 14.0387C36.7737 6.71098 33.447 22.9398 33.447 22.9398C33.447 22.9398 33.6268 19.8829 31.2216 20.7144C28.8166 21.5462 28.9965 31.8409 28.9965 31.8409Z" fill="#66B31B"/>
<path d="M27.3691 32.4375C27.3691 32.4375 37.8437 22.4125 45.1713 23.5364C52.4989 24.6602 36.2702 27.9869 36.2702 27.9869C36.2702 27.9869 39.3271 27.8071 38.4956 30.2123C37.6641 32.6176 27.3691 32.4375 27.3691 32.4375Z" fill="#599B13"/>
<path d="M10.0027 52.6981C9.36809 53.1773 8.56313 52.3726 9.04259 51.738L24.7585 30.9225C26.0733 29.2789 28.5251 29.143 30.0134 30.6316L31.1095 31.7277C32.5978 33.216 32.4621 35.6676 30.8186 36.9825L10.0027 52.6981Z" fill="#F4A200"/>
<path d="M30.5212 31.1392L9.06787 52.5924C9.28324 52.8437 9.66592 52.9521 10.0025 52.6981L30.818 36.982C32.4616 35.6672 32.5975 33.2155 31.1092 31.7272L30.5212 31.1392Z" fill="#E08F00"/>
</svg>
