<svg width="134" height="134" viewBox="0 0 134 134" fill="none" xmlns="http://www.w3.org/2000/svg">
<g opacity="0.7" clip-path="url(#clip0_323_276)">
<path d="M68.3503 131.537C103.958 131.537 132.824 102.672 132.824 67.0641C132.824 31.4565 103.958 2.59076 68.3503 2.59076C32.7427 2.59076 3.87695 31.4565 3.87695 67.0641C3.87695 102.672 32.7427 131.537 68.3503 131.537Z" fill="#7CC259"/>
<path fill-rule="evenodd" clip-rule="evenodd" d="M47.3818 17.7422C47.3818 18.9537 46.3999 19.9357 45.1884 19.9357C43.9769 19.9357 42.9946 18.9537 42.9946 17.7422C42.9946 16.5307 43.9769 15.5485 45.1884 15.5485C46.3999 15.5487 47.3818 16.5307 47.3818 17.7422Z" fill="white"/>
<path d="M131.318 42.4338L134 44.1842L120.148 65.4056L117.468 63.6552L131.318 42.4338Z" fill="#DE5D1D"/>
<path d="M115.958 34.002L112.759 34.1531L113.599 51.9241L116.798 51.773L115.958 34.002Z" fill="#DE5D1D"/>
<path fill-rule="evenodd" clip-rule="evenodd" d="M26.142 72.551L0.88016 84.4681L0 70.2361L7.54849 74.7144L9.28421 64.5354L16.4406 70.5395L18.7132 62.1901L26.142 72.551Z" fill="#F0C82F"/>
<path d="M106.541 110.603C108.782 116.243 106.016 122.656 100.377 124.897C94.7369 127.138 88.324 124.373 86.0824 118.732C83.8403 113.093 86.6064 106.68 92.2456 104.439C97.8862 102.197 104.299 104.962 106.541 110.603ZM88.9532 117.593C90.5651 121.65 95.1784 123.639 99.2356 122.026C103.294 120.414 105.282 115.801 103.67 111.744C102.057 107.686 97.4439 105.697 93.3867 107.309C89.3295 108.922 87.3407 113.535 88.9532 117.593Z" fill="white"/>
<path fill-rule="evenodd" clip-rule="evenodd" d="M129.003 73.3291C129.003 74.5406 128.021 75.5226 126.81 75.5226C125.598 75.5226 124.616 74.5406 124.616 73.3291C124.616 72.1176 125.598 71.1354 126.81 71.1354C128.021 71.1354 129.003 72.1176 129.003 73.3291Z" fill="#F0C82F"/>
<path fill-rule="evenodd" clip-rule="evenodd" d="M74.4765 122.855C74.4765 124.067 73.4946 125.049 72.2831 125.049C71.0716 125.049 70.0894 124.067 70.0894 122.855C70.0894 121.644 71.0716 120.662 72.2831 120.662C73.4946 120.662 74.4765 121.644 74.4765 122.855Z" fill="#BCCAFC"/>
<path fill-rule="evenodd" clip-rule="evenodd" d="M53.5994 1.8302C54.4214 2.40467 55.2903 2.82997 56.0409 3.63449C54.9381 4.96795 54.5842 5.82586 52.9854 6.54323C51.8513 7.05175 50.6184 7.1499 49.4061 7.20329C47.8764 7.27002 46.4772 6.89603 45.0145 7.91464C43.635 8.87619 43.3091 10.691 41.7524 11.6789C39.7605 12.9443 37.6065 12.7303 35.8103 12.6434C34.9239 12.5997 34.1955 12.383 33.0793 13.1388C32.3031 13.6643 31.86 14.6314 31.1981 15.433C29.5286 17.4491 27.4212 18.5608 24.8394 17.9222C24.9145 17.0052 25.2667 16.1742 25.4191 15.2831C29.0907 15.4213 29.125 11.3573 32.6121 9.92621C35.1676 8.87645 38.0164 10.4447 40.1125 9.08059C40.8969 8.57155 41.3643 7.4671 41.8471 6.86462C42.4441 6.12003 43.122 5.35006 44.0678 4.86038C46.5235 3.58869 49.755 4.95852 52.0029 3.60073C52.7514 3.14874 52.9555 2.51774 53.5994 1.8302Z" fill="#DE5D1D"/>
<path d="M53.5232 121.638L47.6968 126.351L52.409 132.176L58.2354 127.463L53.5232 121.638Z" fill="#DE5D1D"/>
<path fill-rule="evenodd" clip-rule="evenodd" d="M129.86 94.1758L127.926 98.8122L124.875 94.8189L121.827 90.8256L126.81 90.1817L131.793 89.5384L129.86 94.1758Z" fill="#BCCAFC"/>
<path d="M101.207 23L9 34.5886L20.1832 123.57L112.39 111.981L101.207 23Z" fill="#222221"/>
<path d="M104.85 17.7399L12.6431 29.3285L23.8262 118.31L116.033 106.721L104.85 17.7399Z" fill="#279636"/>
<path d="M26.3809 29.5938C24.2322 30.1037 22.6061 31.0644 21.3719 32.6489C20.2203 34.1273 20.1441 35.6006 21.0858 36.5757C22.0437 37.5684 23.3737 37.4758 24.865 36.2072C26.1043 35.1528 27.1778 33.9075 28.7578 33.3027C29.7052 32.9397 30.3334 32.1281 30.1381 31.0192C29.9144 29.7454 28.9232 29.4366 27.819 29.4332C27.2611 29.4316 26.6991 29.5556 26.3809 29.5938Z" fill="white"/>
<path d="M17.9445 38.0476C16.9068 38.4263 16.1607 40.1882 16.5255 41.3189C16.8021 42.1757 17.4169 42.5115 18.2706 42.2179C19.3154 41.8585 20.0244 40.1354 19.6185 39.0066C19.3214 38.1795 18.7449 37.8322 17.9445 38.0476Z" fill="white"/>
<path d="M31.7675 114.436C29.6444 113.828 28.0642 112.794 26.904 111.154C25.8215 109.624 25.8131 108.149 26.7985 107.219C27.8011 106.271 29.1254 106.425 30.557 107.76C31.7465 108.871 32.7618 110.164 34.3122 110.841C35.2421 111.247 35.832 112.087 35.5862 113.185C35.3041 114.447 34.2999 114.71 33.1967 114.663C32.6393 114.639 32.0836 114.489 31.7675 114.436Z" fill="white"/>
<path d="M112.17 6.27916L60.4234 12.8281C56.7267 13.2966 54.1103 16.6723 54.5774 20.3693L55.8324 30.2835C56.2995 33.9808 59.6757 36.5993 63.3722 36.1316L64.3537 36.0054L65.875 47.7859L72.8781 34.9272L115.119 29.5818C118.814 29.1144 121.433 25.7377 120.964 22.0399L119.71 12.1262C119.242 8.42866 115.867 5.81173 112.17 6.27916Z" fill="#F0C82F"/>
<path d="M57.7512 109.893L25.4357 63.1918L36.8606 55.2864L58.3665 86.3672L95.6658 38.0667L106.662 46.5583L57.7512 109.893Z" fill="white"/>
<path d="M74.6653 16.9597L74.9097 18.9245L73.195 19.1379L74.333 28.2834L71.9752 28.5768L71.2728 22.9323L71.8149 23.6448C71.5397 23.3767 71.2913 23.1779 71.0696 23.0483C70.8583 22.9053 70.6633 22.8449 70.4847 22.8671C70.3418 22.8849 70.216 22.9429 70.1073 23.041C69.9986 23.1392 69.8764 23.3237 69.7408 23.5945C69.6053 23.8653 69.4086 24.2768 69.1507 24.8288C68.8825 25.3943 68.6203 25.8622 68.3641 26.2327C68.1064 26.5913 67.8257 26.862 67.5219 27.0449C67.2301 27.2264 66.8758 27.343 66.459 27.3949C66.1018 27.4393 65.749 27.4227 65.4008 27.3451C65.0525 27.2676 64.6991 27.0999 64.3405 26.8422C63.9924 26.5711 63.6228 26.1757 63.2316 25.6561L64.7482 24.4334C65.0338 24.7849 65.2703 25.0336 65.4578 25.1795C65.6438 25.3136 65.8499 25.3665 66.0761 25.3384C66.2309 25.3191 66.3694 25.2656 66.4915 25.1779C66.6255 25.0886 66.7663 24.9079 66.9138 24.6356C67.0717 24.3499 67.2595 23.9154 67.4771 23.332L67.8659 22.8121C68.1133 22.1766 68.3651 21.7221 68.6213 21.4483C68.8774 21.1746 69.2139 21.0118 69.6307 20.96C69.9522 20.92 70.2476 20.9618 70.517 21.0855C70.7967 21.1958 71.1166 21.3857 71.4767 21.6553L71.1998 21.7624C71.1597 21.5376 71.113 21.3076 71.0595 21.0724C71.0165 20.8238 70.9801 20.5804 70.9505 20.3423L70.8372 19.4313L61.906 20.5426L61.6615 18.5778L74.6653 16.9597ZM66.9985 24.7339C66.7995 24.0089 66.6138 23.4395 66.4413 23.0256C66.2674 22.5998 66.0287 22.2849 65.7252 22.0808C65.4083 21.8663 65.0043 21.7291 64.5131 21.6693C64.0205 21.5976 63.4058 21.5653 62.669 21.5723L63.0743 19.4359L64.4226 19.9211C65.1161 19.9557 65.6817 20.0305 66.1192 20.1453C66.5568 20.2602 66.9109 20.4338 67.1817 20.6661C67.4509 20.8866 67.6636 21.1866 67.8197 21.5662C67.9743 21.934 68.1102 22.3947 68.2275 22.9485L66.9985 24.7339ZM83.066 22.3718C82.673 22.4207 82.286 22.4205 81.905 22.3711C81.5359 22.3203 81.1691 22.239 80.8045 22.1272C80.4503 22.0019 80.0946 21.8648 79.7375 21.7158C79.4057 21.5757 79.1333 21.4765 78.9205 21.4184C78.7062 21.3483 78.5217 21.3229 78.3669 21.3421C78.1763 21.3658 78.0446 21.4246 77.9716 21.5183C77.8971 21.6001 77.8681 21.7065 77.8844 21.8375C77.9007 21.9685 77.9579 22.0884 78.0561 22.1971C78.1542 22.3058 78.2941 22.4093 78.4756 22.5076L77.2066 24.1166C76.8227 23.85 76.4701 23.5432 76.1488 23.1962C75.8394 22.8478 75.6522 22.4115 75.587 21.8876C75.5277 21.4113 75.6053 21.0146 75.8198 20.6977C76.0447 20.3674 76.3396 20.1131 76.7044 19.9347C77.0676 19.7443 77.4279 19.627 77.7851 19.5825C78.1543 19.5366 78.4855 19.5256 78.7787 19.5496C79.0838 19.5721 79.3614 19.6161 79.6114 19.6818C79.8733 19.7459 80.1136 19.8309 80.3324 19.9367C80.8696 20.1722 81.2818 20.3264 81.569 20.3995C81.8681 20.4711 82.1606 20.4892 82.4464 20.4536C82.7679 20.4136 82.9957 20.3006 83.1298 20.1146C83.2742 19.9153 83.3243 19.6369 83.2798 19.2797C83.2324 18.8986 83.0689 18.5562 82.7892 18.2524C82.5081 17.9367 82.1793 17.6753 81.8028 17.4682L82.7213 15.9572L83.5251 15.8572C83.8167 16.0628 84.1164 16.3338 84.4244 16.6704C84.7323 17.007 85.0044 17.3963 85.2409 17.8385C85.4877 18.2673 85.643 18.7377 85.7067 19.2498C85.7808 19.8452 85.7306 20.3654 85.5562 20.8103C85.3804 21.2434 85.0855 21.5945 84.6715 21.8636C84.2561 22.1209 83.7209 22.2903 83.066 22.3718ZM75.6809 17.5407L77.4201 17.5238C78.2327 17.7371 78.848 18.0173 79.2661 18.3643C79.6841 18.7114 79.9346 19.2183 80.0176 19.8852C80.028 19.9685 80.0354 20.0764 80.0397 20.2089C80.0427 20.3295 80.0389 20.4448 80.0284 20.5549L77.7532 20.7836C77.7622 20.6616 77.766 20.5462 77.7646 20.4376C77.7617 20.317 77.7543 20.2091 77.7424 20.1138C77.6832 19.6375 77.4601 19.2541 77.0733 18.9637C76.685 18.6613 76.1321 18.4943 75.4147 18.4626L75.6809 17.5407ZM83.3464 15.8794L83.5909 17.8443L74.5526 18.969L74.3082 17.0041L83.3464 15.8794ZM96.3859 14.2569L96.6304 16.2218L94.9156 16.4351L96.0536 25.5806L93.6958 25.874L92.8245 18.872L93.045 19.7696C92.6136 19.3154 92.1889 18.9148 91.7709 18.5678C91.3528 18.2207 90.9422 17.9332 90.5389 17.7053C90.1357 17.4773 89.7347 17.3156 89.3358 17.2201C88.937 17.1247 88.5411 17.1014 88.1481 17.1503C87.6718 17.2095 87.2483 17.3529 86.8775 17.5804C86.5187 17.8065 86.1918 18.0951 85.8969 18.4462C85.6139 18.7958 85.3316 19.1997 85.0501 19.658L84.9454 19.2538C85.1643 19.0694 85.4032 18.9006 85.6623 18.7474C85.9318 18.5809 86.2571 18.4739 86.6381 18.4265C87.2336 18.3524 87.683 18.4658 87.9865 18.7666C88.3004 19.054 88.4825 19.4002 88.5329 19.8051C88.5566 19.9956 88.5729 20.175 88.5817 20.3432C88.6024 20.5099 88.6046 20.6245 88.5882 20.687L88.0145 20.5951C88.1158 20.4374 88.2342 20.2715 88.3697 20.0975C88.5157 19.91 88.6676 19.7218 88.8255 19.5329C88.9834 19.3439 89.1368 19.1676 89.2857 19.004L91.198 16.8796L92.7647 18.0995L88.0731 23.5445L86.281 22.2619L87.7689 20.5168L87.2035 21.5123L86.5245 22.0321C86.7018 21.8045 86.8306 21.5768 86.9111 21.3491C86.9916 21.1215 87.02 20.9123 86.9963 20.7218C86.9608 20.436 86.8582 20.2432 86.6885 20.1434C86.5174 20.0317 86.3128 19.9906 86.0746 20.0203C85.9198 20.0395 85.7628 20.0893 85.6035 20.1696C85.4546 20.2365 85.2975 20.3346 85.1322 20.464L83.7962 18.1815C84.2058 17.5864 84.6027 17.0835 84.987 16.6729C85.3697 16.2505 85.7882 15.9203 86.2423 15.6824C86.7068 15.4311 87.2368 15.2684 87.8322 15.1943C88.4395 15.1187 89.0058 15.1511 89.5311 15.2913C90.0565 15.4315 90.581 15.6625 91.1048 15.9842C91.6404 16.3046 92.2036 16.7 92.7942 17.1707L92.7694 17.5547C92.716 17.3195 92.6581 17.0486 92.5957 16.7419C92.5334 16.4353 92.4837 16.1331 92.4467 15.8354L92.1666 13.5848L94.0957 13.3447L94.6532 14.4725L96.3859 14.2569ZM107.957 12.817L108.202 14.7819L106.487 14.9952L107.167 20.4611L104.809 20.7545L104.647 19.4505L104.865 20.3303C104.415 19.9148 103.947 19.5558 103.462 19.2534C102.977 18.951 102.489 18.7275 102 18.5828C101.509 18.4262 101.025 18.3776 100.549 18.4369C100.299 18.468 100.103 18.5468 99.9613 18.6732C99.8318 18.7982 99.7796 18.9619 99.8048 19.1643C99.827 19.3429 99.9058 19.4903 100.041 19.6065C100.177 19.7227 100.438 19.8352 100.827 19.9441L100.006 21.8056C99.1716 21.6072 98.5392 21.2868 98.1093 20.8445C97.6779 20.3903 97.4281 19.8893 97.36 19.3415C97.2859 18.7461 97.3688 18.2461 97.6086 17.8414C97.8485 17.4366 98.1843 17.1228 98.6161 16.8998C99.0583 16.6633 99.5354 16.5133 100.047 16.4496C100.595 16.3814 101.123 16.3943 101.63 16.4884C102.148 16.5691 102.652 16.7301 103.142 16.9715C103.642 17.1995 104.133 17.5012 104.615 17.8765L104.534 18.1042C104.487 17.8199 104.438 17.5237 104.387 17.2155C104.337 16.9074 104.295 16.6224 104.263 16.3604L104.129 15.2886L96.2699 16.2666L96.0254 14.3018L107.957 12.817ZM101.268 21.4491C101.935 21.3661 102.564 21.4148 103.155 21.5953C103.745 21.7757 104.32 22.067 104.878 22.4692C105.448 22.8699 106.011 23.3681 106.569 23.9638L105.539 25.1621C105.221 24.8389 104.856 24.5276 104.444 24.2282C104.03 23.9169 103.607 23.6733 103.174 23.4975C102.751 23.3082 102.349 23.2373 101.968 23.2847C101.766 23.3099 101.617 23.3768 101.521 23.4854C101.425 23.5821 101.385 23.7019 101.403 23.8448C101.419 23.9758 101.47 24.0904 101.555 24.1887C101.65 24.2736 101.816 24.3496 102.055 24.4167L101.306 26.1242C100.931 26.0258 100.574 25.8827 100.237 25.695C99.9106 25.5058 99.6377 25.2556 99.4175 24.9443C99.1974 24.6331 99.0592 24.2513 99.0029 23.7988C98.954 23.4058 99.0123 23.0479 99.1777 22.725C99.3535 22.3887 99.6149 22.1083 99.9618 21.8837C100.321 21.6577 100.756 21.5128 101.268 21.4491ZM107.156 20.3718L107.721 24.9088L105.363 25.2022L105.198 23.8804L105.101 22.8042C105.052 22.508 105.004 22.2177 104.956 21.9334C104.921 21.6476 104.884 21.3558 104.847 21.0581L104.798 20.6652L107.156 20.3718ZM112.68 10.3248L113.387 18.9253L110.797 19.2476L109.375 10.736L112.68 10.3248ZM112.706 23.6536C112.17 23.7203 111.71 23.6203 111.326 23.3537C110.953 23.0737 110.737 22.7014 110.679 22.237C110.62 21.7607 110.737 21.341 111.031 20.978C111.336 20.6135 111.756 20.3979 112.292 20.3313C112.816 20.2661 113.265 20.3735 113.638 20.6535C114.024 20.9321 114.246 21.3095 114.305 21.7858C114.363 22.2502 114.239 22.6647 113.934 23.0292C113.639 23.3803 113.23 23.5884 112.706 23.6536Z" fill="#222221"/>
</g>
<defs>
<clipPath id="clip0_323_276">
<rect width="134" height="134" fill="white"/>
</clipPath>
</defs>
</svg>
