<svg width="35" height="35" viewBox="0 0 35 35" fill="none" xmlns="http://www.w3.org/2000/svg">
<path d="M29.2499 1.83333H5.74992C3.5868 1.83333 1.83325 3.58688 1.83325 5.74999V29.25C1.83325 31.4131 3.5868 33.1667 5.74992 33.1667H29.2499C31.413 33.1667 33.1666 31.4131 33.1666 29.25V5.74999C33.1666 3.58688 31.413 1.83333 29.2499 1.83333Z" stroke="#279636" stroke-width="2" stroke-linecap="round"/>
<path d="M10.6458 12.6042C11.7274 12.6042 12.6042 11.7274 12.6042 10.6458C12.6042 9.56428 11.7274 8.6875 10.6458 8.6875C9.56428 8.6875 8.6875 9.56428 8.6875 10.6458C8.6875 11.7274 9.56428 12.6042 10.6458 12.6042Z" stroke="#279636" stroke-width="2" stroke-linecap="round"/>
<path d="M3.79175 31.2083L14.0701 19.2169C14.8465 18.3112 16.2454 18.3041 17.0309 19.2018L29.2501 33.1667" stroke="#279636" stroke-width="2" stroke-linecap="round"/>
<path d="M20.4375 22.3959L24.9362 17.1473C25.6786 16.2812 27.0012 16.2304 27.8079 17.0371L33.1667 22.3959" stroke="#279636" stroke-width="2" stroke-linecap="round"/>
</svg>
