<svg width="24" height="24" viewBox="0 0 24 24" fill="none" xmlns="http://www.w3.org/2000/svg">
<g id="logout">
<path id="Vector" d="M23.9179 20.541C23.905 21.0012 23.7997 21.4542 23.6083 21.8729C23.4169 22.2916 23.1434 22.6676 22.8038 22.9785C22.4643 23.2895 22.0657 23.529 21.6318 23.6829C21.1979 23.8368 20.7375 23.9019 20.2779 23.8744C17.4073 23.8904 14.5366 23.8744 11.6659 23.8744C11.4891 23.8744 11.3196 23.8041 11.1945 23.6791C11.0695 23.5541 10.9993 23.3845 10.9993 23.2077C10.9993 23.0309 11.0695 22.8613 11.1945 22.7363C11.3196 22.6113 11.4891 22.541 11.6659 22.541C14.5993 22.541 17.5326 22.5837 20.4659 22.541C21.9419 22.5197 22.5846 21.4104 22.5846 20.0904V3.47304C22.5949 3.05339 22.4768 2.6406 22.2462 2.28987C22.0155 1.93914 21.6833 1.66718 21.2939 1.51037C20.8336 1.38474 20.3546 1.34185 19.8793 1.3837H11.6659C11.4891 1.3837 11.3196 1.31347 11.1945 1.18844C11.0695 1.06342 10.9993 0.893848 10.9993 0.717037C10.9993 0.540226 11.0695 0.370657 11.1945 0.245633C11.3196 0.120608 11.4891 0.0503704 11.6659 0.0503704C14.6313 0.0503704 17.6193 -0.062963 20.5819 0.0503704C21.0356 0.0618445 21.4825 0.163434 21.8966 0.349228C22.3106 0.535022 22.6836 0.801311 22.9938 1.1326C23.304 1.46388 23.5452 1.85355 23.7034 2.27893C23.8616 2.70431 23.9336 3.1569 23.9153 3.61037L23.9179 20.541Z" fill="black"/>
<path id="Vector_2" d="M0.195314 11.4944C0.0826634 11.6036 0.0167142 11.7522 0.0113138 11.9091C0.0113138 11.9291 0.0113137 11.9464 0.0033137 11.9664C-0.0046863 11.9864 0.00331375 12.0024 0.0113138 12.0211C0.0166489 12.1783 0.0825811 12.3273 0.195314 12.4371L5.08731 17.3291C5.21305 17.4505 5.38145 17.5177 5.55625 17.5162C5.73105 17.5146 5.89825 17.4445 6.02186 17.3209C6.14546 17.1973 6.21558 17.0301 6.2171 16.8553C6.21862 16.6805 6.15142 16.5121 6.02998 16.3864L2.27665 12.6317H16.5993C16.7761 12.6317 16.9457 12.5615 17.0707 12.4365C17.1957 12.3114 17.266 12.1419 17.266 11.9651C17.266 11.7882 17.1957 11.6187 17.0707 11.4936C16.9457 11.3686 16.7761 11.2984 16.5993 11.2984H2.27665L6.02998 7.54372C6.15142 7.41798 6.21862 7.24958 6.2171 7.07478C6.21558 6.89999 6.14546 6.73278 6.02186 6.60917C5.89825 6.48557 5.73105 6.41545 5.55625 6.41394C5.38145 6.41242 5.21305 6.47961 5.08731 6.60105L0.195314 11.4944Z" fill="black"/>
</g>
</svg>
