<svg width="68" height="78" viewBox="0 0 68 78" fill="none" xmlns="http://www.w3.org/2000/svg">
<mask id="mask0_164_182" style="mask-type:luminance" maskUnits="userSpaceOnUse" x="9" y="19" width="11" height="18">
<path d="M10.8494 19.3215L19.6095 19.9359L18.4576 36.3583L9.69749 35.7439L10.8494 19.3215Z" fill="white"/>
</mask>
<g mask="url(#mask0_164_182)">
<path d="M10.8494 19.3215L19.6095 19.9359L18.4576 36.3583L9.69749 35.7439L10.8494 19.3215Z" fill="#F5B493"/>
<path d="M11.2612 22.2346C12.1997 26.8392 15.5358 30.2148 19.7914 31.5038L19.8619 25.832L11.2612 22.2346Z" fill="#EBA284"/>
</g>
<path d="M35.1793 26.9853L25.6711 47.2665L34.6722 53.2254L41.1382 29.1389L35.1793 26.9853Z" fill="#EBA284"/>
<path d="M34.906 28.1781C35.3202 22.2243 35.0315 20.1 35.5746 19.99C35.8324 19.9384 36.1521 20.5279 36.2724 20.7497C36.8087 21.7379 36.7794 22.6489 36.8104 23.2212C36.8774 24.4432 37.1799 26.9543 38.2369 26.9423C39.294 26.9303 43.6888 24.5206 43.6888 24.5206C43.6888 24.5206 42.7693 29.022 40.8357 30.3214C38.9021 31.6207 34.906 28.1781 34.906 28.1781Z" fill="#EBA284"/>
<path d="M25.4926 28.9756C22.4882 30.024 19.104 29.1474 17.6723 28.5012C16.3879 27.9082 15.1885 27.1464 14.1059 26.2359C12.1224 24.8248 7.53165 20.937 7.059 14.7203C6.95931 13.3899 6.55884 8.03432 10.5102 4.64666C13.9392 1.70588 19.2759 1.42057 22.6532 3.56557C25.2142 4.95432 26.6184 7.26432 26.6373 7.2815C27.8043 8.45713 28.3096 10.5471 27.9865 14.4367C28.1927 15.6999 29.1999 27.6831 25.4926 28.9756Z" fill="#F5B493"/>
<path d="M27.9932 14.4384C28.7357 17.4393 30.4389 17.3843 30.3994 18.3073C30.3582 19.519 28.9007 19.947 28.153 19.9968L27.9932 14.4384Z" fill="#F5B493"/>
<path d="M25.8621 16.5679C25.4101 16.6349 24.9581 16.1227 24.8532 15.4232C24.7484 14.7237 25.0251 14.1015 25.4823 14.0327C25.9395 13.964 26.3881 14.4779 26.4929 15.1774C26.5977 15.877 26.3159 16.5009 25.8621 16.5679Z" fill="#2D1929"/>
<path d="M22.7545 11.8603C22.7201 11.8605 22.6865 11.8504 22.6579 11.8313C22.6294 11.8122 22.6072 11.785 22.5942 11.7532C22.5813 11.7214 22.5782 11.6864 22.5853 11.6528C22.5924 11.6192 22.6094 11.5885 22.6341 11.5646C22.6496 11.5492 24.3529 9.90432 26.4927 10.9424C26.5131 10.9523 26.5313 10.9662 26.5463 10.9831C26.5612 11.0001 26.5727 11.0198 26.5801 11.0412C26.5874 11.0626 26.5905 11.0852 26.5891 11.1078C26.5876 11.1304 26.5818 11.1525 26.5718 11.1728C26.5619 11.1931 26.5481 11.2113 26.5311 11.2263C26.5142 11.2413 26.4945 11.2528 26.4731 11.2601C26.4517 11.2675 26.429 11.2705 26.4064 11.2691C26.3839 11.2677 26.3618 11.2618 26.3415 11.2518C24.4337 10.322 22.9366 11.7503 22.873 11.8104C22.8415 11.8418 22.799 11.8596 22.7545 11.8603Z" fill="#2D1929"/>
<path d="M9.81234 31.3578C9.39984 31.4626 7.98875 31.8373 6.23219 33.5784C2.13984 37.6312 1.69297 43.5695 1.52109 46.3538C1.00547 54.6193 0.390156 65.0349 0 77.3498L27.5 77.3171C27.0033 69.0293 26.3742 61.8724 25.7933 56.1404C24.5334 43.731 23.6534 39.5699 20.2761 35.9829C19.6333 35.2903 14.7606 30.1134 9.81234 31.3578Z" fill="#917EEC"/>
<path d="M7.65371 33.2811C7.6073 32.1243 7.61418 29.12 9.22465 28.2795C10.2421 27.7484 10.8386 28.6387 16.4434 31.1429C18.4526 32.0401 19.6798 32.5076 20.3415 33.8517C20.8451 34.8829 20.7867 35.9262 20.675 36.6017L7.65371 33.2811Z" fill="#917EEC"/>
<path d="M12.7893 32.3701C17.9232 33.7176 21.0221 35.9382 22.8818 37.6707C25.1162 39.7504 25.7951 41.3437 28.4591 44.5165C30.7323 47.2253 33.2818 49.6896 36.0663 51.8693L40.8788 28.1626L48.1096 29.0478C48.257 34.3151 48.0664 39.5864 47.539 44.8293C46.3943 56.2109 45.8202 61.9017 42.5305 64.0346C35.8618 68.3573 22.1118 59.5057 15.529 50.5974C13.6023 47.9918 8.82586 41.5276 10.9416 35.5137C11.3563 34.3598 11.9829 33.2937 12.7893 32.3701Z" fill="#F5B493"/>
<path d="M11.1564 32.3701C8.66253 37.8942 9.25378 41.9384 9.68863 43.7551C11.2578 50.3225 17.1463 54.4698 22.9368 58.5484C24.6488 59.7548 26.4277 60.8635 28.2649 61.869L34.8219 50.869C34.8219 50.869 28.71 43.8857 25.4135 39.5751C22.1169 35.2645 15.6561 30.8731 11.1564 32.3701Z" fill="#917EEC"/>
<path d="M7.63306 32.3873L12.7377 33.1659L20.7609 35.0857C20.7609 35.0857 16.8318 33.1951 13.2499 32.6503C11.2218 32.346 9.64056 32.2274 7.63306 32.3873Z" fill="#6D5FDE"/>
<path d="M10.4123 44.8843C10.4123 44.8843 11.4177 51.6184 26.2437 60.7054C26.3686 62.0243 26.4935 63.342 26.6184 64.6585L12.0296 77.3343H7.87024C7.93556 75.7118 8.07478 73.1543 8.4065 70.0124C8.8929 65.4028 9.59587 61.4187 8.37728 60.8859C7.77056 60.6229 7.15353 61.4221 5.22509 61.3362C4.80743 61.319 3.80196 61.2743 3.69368 60.8859C3.55274 60.3823 5.00681 59.5779 5.22509 59.4456C6.72556 58.5381 8.2879 54.0521 8.55774 38.372L10.4123 44.8843Z" fill="#6D5FDE"/>
<path d="M36.0662 51.8693C36.1357 54.5834 36.9098 57.2328 38.3126 59.5573C37.5792 55.0283 37.2342 50.4449 37.2813 45.8571L36.0662 51.8693Z" fill="#EBA284"/>
<path d="M42.5218 12.5924H37.1868C36.5432 12.5924 36.0215 13.1142 36.0215 13.7578V26.7549C36.0215 27.3985 36.5432 27.9202 37.1868 27.9202H42.5218C43.1654 27.9202 43.6871 27.3985 43.6871 26.7549V13.7578C43.6871 13.1142 43.1654 12.5924 42.5218 12.5924Z" fill="#2D1929"/>
<path d="M36.8243 14.8096H35.1382C34.9502 14.8096 34.7979 14.962 34.7979 15.1499V18.4499C34.7979 18.6379 34.9502 18.7903 35.1382 18.7903H36.8243C37.0122 18.7903 37.1646 18.6379 37.1646 18.4499V15.1499C37.1646 14.962 37.0122 14.8096 36.8243 14.8096Z" fill="#2D1929"/>
<path d="M37.9757 11.4289H44.6169C45.1147 11.4289 45.5921 11.6266 45.9441 11.9786C46.2961 12.3306 46.4938 12.808 46.4938 13.3057V13.732C46.4938 13.9066 46.4245 14.074 46.301 14.1975C46.1776 14.3209 46.0101 14.3903 45.8355 14.3903H36.0215V13.3831C36.0215 12.8648 36.2274 12.3677 36.5939 12.0012C36.9603 11.6348 37.4574 11.4289 37.9757 11.4289Z" fill="#2D1929"/>
<path d="M43.0305 16.4665H50.404V26.1242H43.0305V16.4665Z" fill="#2D1929"/>
<path d="M54.2661 17.826C55.7889 16.0093 56.0261 15.3802 55.9075 15.1723C55.6136 14.6567 53.6336 16.4527 49.72 16.4665V26.1259C54.0306 26.9577 55.6514 27.9202 55.9075 27.4201C56.0054 27.2242 55.9333 26.6759 54.2661 24.8231C55.5758 22.7829 55.6033 19.904 54.2661 17.826Z" fill="#2D1929"/>
<path d="M43.689 25.899C43.6662 25.899 43.6443 25.8899 43.6282 25.8738C43.6121 25.8577 43.603 25.8359 43.603 25.8131V16.5834C43.603 16.5606 43.6121 16.5387 43.6282 16.5226C43.6443 16.5065 43.6662 16.4974 43.689 16.4974C43.7118 16.4974 43.7336 16.5065 43.7497 16.5226C43.7658 16.5387 43.7749 16.5606 43.7749 16.5834V25.8131C43.7749 25.8359 43.7658 25.8577 43.7497 25.8738C43.7336 25.8899 43.7118 25.899 43.689 25.899Z" fill="white"/>
<path d="M49.7251 25.899C49.7023 25.899 49.6804 25.8899 49.6643 25.8738C49.6482 25.8577 49.6392 25.8359 49.6392 25.8131V16.5834C49.6392 16.5606 49.6482 16.5387 49.6643 16.5226C49.6804 16.5065 49.7023 16.4974 49.7251 16.4974C49.7479 16.4974 49.7698 16.5065 49.7859 16.5226C49.802 16.5387 49.811 16.5606 49.811 16.5834V25.8131C49.811 25.8359 49.802 25.8577 49.7859 25.8738C49.7698 25.8899 49.7479 25.899 49.7251 25.899Z" fill="white"/>
<path d="M48.7009 17.8759H44.4041C44.3813 17.8759 44.3594 17.8668 44.3433 17.8507C44.3272 17.8346 44.3181 17.8127 44.3181 17.7899C44.3181 17.7672 44.3272 17.7453 44.3433 17.7292C44.3594 17.7131 44.3813 17.704 44.4041 17.704H48.7009C48.7237 17.704 48.7456 17.7131 48.7617 17.7292C48.7778 17.7453 48.7869 17.7672 48.7869 17.7899C48.7869 17.8127 48.7778 17.8346 48.7617 17.8507C48.7456 17.8668 48.7237 17.8759 48.7009 17.8759Z" fill="white"/>
<path d="M48.7009 19.0291H44.4041C44.3813 19.0291 44.3594 19.0201 44.3433 19.004C44.3272 18.9879 44.3181 18.966 44.3181 18.9432C44.3181 18.9204 44.3272 18.8986 44.3433 18.8824C44.3594 18.8663 44.3813 18.8573 44.4041 18.8573H48.7009C48.7237 18.8573 48.7456 18.8663 48.7617 18.8824C48.7778 18.8986 48.7869 18.9204 48.7869 18.9432C48.7869 18.966 48.7778 18.9879 48.7617 19.004C48.7456 19.0201 48.7237 19.0291 48.7009 19.0291Z" fill="white"/>
<path d="M48.7009 20.1738H44.4041C44.3813 20.1738 44.3594 20.1648 44.3433 20.1487C44.3272 20.1325 44.3181 20.1107 44.3181 20.0879C44.3181 20.0651 44.3272 20.0432 44.3433 20.0271C44.3594 20.011 44.3813 20.002 44.4041 20.002H48.7009C48.7237 20.002 48.7456 20.011 48.7617 20.0271C48.7778 20.0432 48.7869 20.0651 48.7869 20.0879C48.7869 20.1107 48.7778 20.1325 48.7617 20.1487C48.7456 20.1648 48.7237 20.1738 48.7009 20.1738Z" fill="white"/>
<path d="M48.7009 21.3134H44.4041C44.3813 21.3134 44.3594 21.3043 44.3433 21.2882C44.3272 21.2721 44.3181 21.2502 44.3181 21.2274C44.3181 21.2047 44.3272 21.1828 44.3433 21.1667C44.3594 21.1506 44.3813 21.1415 44.4041 21.1415H48.7009C48.7237 21.1415 48.7456 21.1506 48.7617 21.1667C48.7778 21.1828 48.7869 21.2047 48.7869 21.2274C48.7869 21.2502 48.7778 21.2721 48.7617 21.2882C48.7456 21.3043 48.7237 21.3134 48.7009 21.3134Z" fill="white"/>
<path d="M48.7009 22.4632H44.4041C44.3813 22.4632 44.3594 22.4542 44.3433 22.4381C44.3272 22.4219 44.3181 22.4001 44.3181 22.3773C44.3181 22.3545 44.3272 22.3326 44.3433 22.3165C44.3594 22.3004 44.3813 22.2914 44.4041 22.2914H48.7009C48.7237 22.2914 48.7456 22.3004 48.7617 22.3165C48.7778 22.3326 48.7869 22.3545 48.7869 22.3773C48.7869 22.4001 48.7778 22.4219 48.7617 22.4381C48.7456 22.4542 48.7237 22.4632 48.7009 22.4632Z" fill="white"/>
<path d="M48.7009 23.6096H44.4041C44.3813 23.6096 44.3594 23.6006 44.3433 23.5844C44.3272 23.5683 44.3181 23.5465 44.3181 23.5237C44.3181 23.5009 44.3272 23.479 44.3433 23.4629C44.3594 23.4468 44.3813 23.4377 44.4041 23.4377H48.7009C48.7237 23.4377 48.7456 23.4468 48.7617 23.4629C48.7778 23.479 48.7869 23.5009 48.7869 23.5237C48.7869 23.5465 48.7778 23.5683 48.7617 23.5844C48.7456 23.6006 48.7237 23.6096 48.7009 23.6096Z" fill="white"/>
<path d="M48.7009 24.7509H44.4041C44.3813 24.7509 44.3594 24.7418 44.3433 24.7257C44.3272 24.7096 44.3181 24.6877 44.3181 24.6649C44.3181 24.6422 44.3272 24.6203 44.3433 24.6042C44.3594 24.5881 44.3813 24.579 44.4041 24.579H48.7009C48.7237 24.579 48.7456 24.5881 48.7617 24.6042C48.7778 24.6203 48.7869 24.6422 48.7869 24.6649C48.7869 24.6877 48.7778 24.7096 48.7617 24.7257C48.7456 24.7418 48.7237 24.7509 48.7009 24.7509Z" fill="white"/>
<path d="M40.7224 28.9532C41.9788 21.8118 42.7213 20.0518 43.1819 20.0845C43.3418 20.0965 43.4879 20.3234 43.6099 20.5125C44.0654 21.2189 43.7319 21.817 43.8952 22.8431C43.9934 23.38 44.1867 23.8951 44.4658 24.3642C44.8275 25.0376 45.3113 25.6379 45.8924 26.1345L49.3987 26.1225C49.3385 26.5164 49.2512 26.9058 49.1374 27.2878C48.9114 28.0603 48.5683 28.7936 48.1199 29.462C47.2605 30.5946 44.1513 30.4846 40.7224 28.9532Z" fill="#F5B493"/>
<path d="M35.982 42.6861C35.3257 42.6797 34.6736 42.5808 34.0449 42.3921C31.264 41.5156 29.2565 38.3531 29.8306 35.7561L29.8477 35.6701C29.9406 35.1889 30.1571 34.0648 31.5115 33.1246C33.7957 31.5365 37.2298 32.4767 39.9506 29.78C42.3276 27.4253 38.3934 22.4478 38.3538 22.3979L39.5398 21.4457C39.7392 21.6932 44.3677 27.5439 41.0213 30.8611C37.9568 33.8964 34.2013 33.1075 32.3795 34.3759C31.5338 34.9637 31.4135 35.5893 31.3482 35.9623C31.3379 36.0104 31.331 36.0517 31.3224 36.0878C30.9013 37.9354 32.4482 40.2953 34.5107 40.9415C36.0662 41.4314 37.6045 41.1529 38.1562 39.6232C38.3796 38.9357 38.6019 38.2517 38.8231 37.5711C39.5656 38.9581 39.526 40.5376 38.7045 41.5362C37.8485 42.5675 36.4323 42.6861 35.982 42.6861Z" fill="#2D1929"/>
<path d="M24.5952 21.322L27.5429 21.75C27.5337 22.3916 27.5257 23.0333 27.5188 23.675C26.8192 23.7501 26.1183 23.5446 25.5702 23.1034C25.022 22.6622 24.6713 22.0215 24.5952 21.322Z" fill="white"/>
<path d="M13.7553 16.6728C13.7553 16.6728 16.3471 16.2293 16.0945 12.8073C15.8418 9.38526 16.5379 7.79886 19.1367 7.79886C21.7354 7.79886 21.3539 4.44042 21.3539 4.44042C21.3539 4.44042 24.9289 5.23964 27.1031 7.84698C27.1031 7.84698 29.8256 1.59932 23.0021 1.92073C21.6564 1.24354 15.9432 -1.44114 10.1356 1.01667C9.23495 1.39823 7.68464 2.0737 6.33198 3.61542C2.69511 7.76964 3.38432 14.8818 6.52276 19.3403C7.63788 20.9057 9.07626 22.2134 10.7406 23.1748L13.7553 16.6728Z" fill="#2D1929"/>
<path d="M14.2294 20.4196C12.8682 21.0762 11.1168 20.2667 10.3193 18.6115C9.52179 16.9564 9.97554 15.0846 11.3402 14.4281C12.7049 13.7715 14.4529 14.581 15.2521 16.2345C16.0513 17.8879 15.6044 19.7665 14.2294 20.4196Z" fill="#F5B493"/>
<path d="M14.2588 18.792C14.2485 18.792 13.3238 18.7164 13.1829 17.8346C13.0935 17.2829 13.7827 17.0217 14.0577 16.9392C13.8549 16.5765 13.0557 15.2823 12.0674 15.3923C11.1359 15.4989 11.2321 16.5524 11.2373 16.5954C11.2385 16.6065 11.2374 16.6177 11.2343 16.6284C11.2311 16.639 11.2258 16.649 11.2188 16.6576C11.2118 16.6662 11.2031 16.6734 11.1933 16.6786C11.1835 16.6839 11.1727 16.6872 11.1616 16.6882C11.1391 16.6906 11.1165 16.6841 11.0988 16.6699C11.0811 16.6557 11.0697 16.6351 11.0671 16.6126C11.0671 16.6006 10.9468 15.3459 12.0468 15.2187C13.3118 15.0726 14.2245 16.8721 14.2623 16.9495C14.268 16.9612 14.2711 16.974 14.2712 16.987C14.2713 17.0001 14.2684 17.013 14.2628 17.0247C14.2571 17.0365 14.2489 17.0468 14.2387 17.0549C14.2285 17.063 14.2166 17.0687 14.2038 17.0715C14.2038 17.0715 13.2688 17.2864 13.3445 17.8003C13.4665 18.5496 14.2554 18.6132 14.264 18.6132C14.2877 18.6139 14.3101 18.624 14.3264 18.6412C14.3427 18.6585 14.3515 18.6815 14.3508 18.7052C14.3501 18.7289 14.34 18.7513 14.3228 18.7676C14.3055 18.7839 14.2825 18.7927 14.2588 18.792Z" fill="#2D1929"/>
<path d="M63.9374 4.95947L58.623 12.8124L65.5582 6.76072L63.9374 4.95947Z" fill="#86EBF9"/>
<path d="M61.5054 16.6779L67.9902 15.1689V17.221L61.5054 16.6779Z" fill="#86EBF9"/>
<path d="M60.2456 19.9401L67.2701 23.6835L66.2784 25.2545L60.2456 19.9401Z" fill="#86EBF9"/>
<path d="M20.7607 35.0857C20.7607 35.0857 14.9754 30.9161 9.69367 35.7234C4.41195 40.5307 16.4965 67.1903 15.228 72.8656H18.5212C17.0766 65.7148 15.2224 58.6528 12.9679 51.7147C9.30007 40.5342 8.60054 31.1704 20.7607 35.0857Z" fill="#EFBD42"/>
<mask id="mask1_164_182" style="mask-type:luminance" maskUnits="userSpaceOnUse" x="10" y="55" width="22" height="23">
<path d="M10.0735 77.3309C10.1233 76.5832 10.9758 63.904 11.7922 57.4638C11.8644 56.8915 12.0243 55.7451 12.7822 55.3928C14.2329 54.7242 16.1751 57.7612 19.9426 59.4903C21.8953 60.3655 24.018 60.7964 26.1575 60.7518C28.0321 66.285 29.9084 71.8177 31.7865 77.3498L10.0735 77.3309Z" fill="white"/>
</mask>
<g mask="url(#mask1_164_182)">
<path d="M10.0735 77.3309C10.1233 76.5832 10.9758 63.904 11.7922 57.4638C11.8644 56.8915 12.0243 55.7451 12.7822 55.3928C14.2329 54.7242 16.1751 57.7612 19.9426 59.4903C21.8953 60.3655 24.018 60.7964 26.1575 60.7518C28.0321 66.285 29.9084 71.8177 31.7865 77.3498L10.0735 77.3309Z" fill="#EFBD42"/>
<path d="M14.1865 55.6162C14.1865 55.6162 17.227 60.3909 21.4895 61.869C27.9743 64.1188 28.0671 68.854 27.5051 70.5538C27.2301 71.3891 26.5237 71.8377 26.6148 72.8656C26.7489 74.3626 28.4436 74.8249 28.3009 75.6568C28.0603 77.0507 25.5629 78.1713 22.0584 78.0631H33.0137C33.0137 78.0631 33.3695 76.1415 33.4021 75.9627C33.4348 75.784 26.6148 57.8574 26.6148 57.8574L14.1865 55.6162Z" fill="#D7981A"/>
</g>
</svg>
