<svg width="67" height="71" viewBox="0 0 67 71" fill="none" xmlns="http://www.w3.org/2000/svg">
<path d="M62.8761 24.0548C62.6 29.4039 61.1389 34.9972 57.4344 38.661C55.2371 40.8227 52.4299 42.1416 49.6803 43.4239C46.2317 45.0174 42.9421 46.5361 39.2456 46.6847C38.5554 46.7091 37.6695 46.5015 37.5545 45.781C37.4739 45.2192 37.9456 44.7551 38.3713 44.4009C40.4766 42.7034 42.3979 40.957 44.8944 40.0288C46.9652 39.2473 48.5529 37.4642 49.8299 35.559C52.3033 31.9075 53.937 27.6208 54.5467 23.1754C54.9025 20.6482 54.7689 18.1021 56.7786 16.3242C57.462 15.7164 58.385 15.3242 59.2752 15.4815C60.4149 15.7238 61.4819 16.8119 62.0018 17.863C62.9221 19.7315 62.9796 21.942 62.8761 24.0548Z" fill="#FE4D59"/>
<path d="M62.8762 24.0548C62.6001 29.4039 61.139 34.9972 57.4345 38.661C55.2372 40.8226 52.43 42.1416 49.6804 43.4239C47.7246 44.3277 45.7343 45.2436 43.698 45.8787C44.1355 45.3049 44.0916 44.9596 47.1149 42.0317C48.1963 40.9936 49.0821 39.9067 50.2672 39.003C50.3132 38.9663 50.3592 38.9297 50.4052 38.893C54.5561 35.6617 57.202 30.5989 57.6991 25.5569C58.2595 20.1045 56.1147 17.8582 55.9274 17.3012C56.5407 16.3899 57.4145 15.6664 58.4584 15.4815C58.792 15.4571 59.1257 15.4693 59.4593 15.5303C60.5062 15.8113 61.5186 16.886 62.0019 17.863C62.9222 19.7315 62.9797 21.942 62.8762 24.0548Z" fill="#F43749"/>
<path d="M66.1665 32.3959C64.7975 37.5741 62.2319 42.6912 57.8717 45.4024C55.2032 47.0643 52.1211 47.6732 49.1282 48.2968C45.5963 49.0295 41.9838 49.7378 38.4749 49.0417C37.7961 48.9074 36.9563 48.5044 37.0023 47.7716C37.0368 47.1976 37.6006 46.8557 38.0837 46.6114C40.4882 45.439 42.7086 44.1811 45.3431 43.8514C47.529 43.5705 49.4388 42.1905 51.0839 40.6272C54.2363 37.6352 56.7097 33.8249 58.2168 29.6237C58.8611 27.8529 59.2292 26.0576 60.3107 24.7143V24.702C61.3018 23.4645 63.0276 22.5901 64.4063 23.1999C65.4417 23.664 66.3046 25.0318 66.5807 26.1553C67.0869 28.1948 66.7072 30.3687 66.1665 32.3959Z" fill="#FF717F"/>
<g opacity="0.37">
<path d="M66.1665 32.3959C64.7975 37.5741 62.2319 42.6912 57.8717 45.4024C55.2032 47.0643 52.1211 47.6732 49.1282 48.2968C47.506 48.2235 45.8954 47.9304 44.3538 47.4053C48.4379 46.2451 52.6141 44.865 55.8124 41.934C58.8203 39.188 60.8464 35.1319 61.0814 30.5397C61.1735 28.5978 61.0124 26.5217 60.3107 24.7143V24.702C61.3018 23.4645 63.0276 22.5901 64.4063 23.1999C65.4417 23.664 66.3046 25.0318 66.5807 26.1553C67.0869 28.1948 66.7072 30.3687 66.1665 32.3959Z" fill="#FE4D59"/>
</g>
<path d="M50.3016 36.3284C46.353 45.8802 36.5113 51.077 26.9357 48.8463C17.5847 46.6966 16.1855 36.1238 21.1144 31.5777C21.7126 31.0159 22.4029 30.5518 23.1622 30.2465C27.4994 28.4513 32.8606 31.5044 36.8757 28.9886C38.2563 28.1215 39.2341 26.7049 40.2466 25.3859C41.2475 24.0548 42.3864 22.7236 43.8935 22.1496C47.3389 20.8336 50.7723 24.8801 51.4291 28.3658C51.9238 31.0404 51.337 33.837 50.3016 36.3284Z" fill="#786487"/>
<g opacity="0.56">
<path d="M50.3016 36.3284C46.353 45.8803 36.5113 51.077 26.9357 48.8463C17.5847 46.6966 16.1855 36.1238 21.1144 31.5777C21.5056 32.0784 21.8507 32.7135 22.1843 33.3119C23.3118 35.2903 24.8304 36.9024 26.7632 38.0016C29.8464 39.748 33.4818 40.1265 36.9678 39.7968C40.4192 39.4793 43.9971 38.3924 46.413 35.7422C49.0467 32.8482 49.9457 28.3649 49.6113 24.4578C50.5317 25.6546 51.1875 27.0835 51.4291 28.3658C51.9238 31.0404 51.337 33.837 50.3016 36.3284Z" fill="#5B4472"/>
</g>
<path d="M13.7679 42.9721C15.1105 42.4904 16.4733 41.978 17.5009 41.1718C18.5284 40.3657 19.1722 39.1978 18.781 38.1231C18.3897 37.0484 16.724 36.2413 15.3455 36.6625C16.6118 36.0326 17.111 34.6706 16.4512 33.6457C15.7915 32.6208 14.0567 32.0634 12.6087 32.411C12.7382 31.0407 12.5504 29.549 11.3513 28.5084C10.1523 27.4679 7.66437 27.2081 6.55084 28.3006C6.14319 26.6643 4.90674 25.1513 3.14568 24.1338C2.58046 23.8073 1.87335 23.5186 1.18179 23.652C-0.0443262 23.8886 -0.19542 25.1663 0.18308 26.0701C0.874057 27.7201 2.47169 29.1464 4.52255 29.9442C3.51978 30.5086 3.08939 31.5798 3.51005 32.4642C3.9307 33.3486 5.16889 33.9757 6.42291 33.9395C5.21913 34.1548 5.01368 35.506 5.8134 36.2126C6.61313 36.9192 7.93432 37.1276 9.15736 37.2697C8.10146 37.1657 7.1606 37.9924 7.24168 38.7867C7.32276 39.581 8.19396 40.2392 9.19422 40.5127C10.1945 40.7862 11.2995 40.7393 12.3509 40.6125C12.4709 41.6863 12.3344 42.8645 13.7679 42.9721Z" fill="#BCDEBF"/>
<path d="M14.7546 42.0711C14.6163 42.0111 14.5498 41.8441 14.6057 41.6972C14.7113 41.4192 14.5318 41.0813 14.3196 40.884C14.14 40.7169 13.9193 40.5947 13.686 40.4658C12.1117 39.5936 11.5635 38.3299 10.6331 36.5928C8.44503 32.5388 5.19044 29.2745 2.04251 26.1178C1.78347 25.8588 2.15235 25.4388 2.41422 25.7008C5.59066 28.8861 8.87482 32.1801 11.1019 36.3081C11.792 37.6159 12.4711 39.0505 13.6046 39.7652C13.942 39.9776 14.3462 40.1447 14.6765 40.4524C15.4537 41.1764 15.2082 42.2652 14.7546 42.0711Z" fill="#3ABA4D"/>
<path d="M14.5153 42.0603C15.7427 42.8125 17.0051 43.5605 18.254 43.8472C19.5028 44.134 20.7541 43.8759 21.256 42.8544C21.7579 41.8328 21.2289 39.972 20.0206 39.1513C21.3024 39.7447 22.5956 39.2432 22.8849 38.0405C23.1742 36.8377 22.423 35.0868 21.2208 34.1621C22.2757 33.3604 23.207 32.2256 23.1512 30.5826C23.0955 28.9396 21.6363 26.7848 20.1281 26.6186C21.0165 25.2131 21.2703 23.2283 20.8271 21.1526C20.6849 20.4864 20.4221 19.7321 19.871 19.2689C18.894 18.4477 17.8904 19.171 17.501 20.0696C16.79 21.71 16.8361 23.9255 17.626 26.0871C16.5646 25.6605 15.5226 26.0248 15.1747 26.9441C14.8269 27.8635 15.2009 29.2647 16.0546 30.2404C15.1074 29.4229 14.0159 30.1515 14.0441 31.2556C14.0724 32.3597 14.7975 33.5505 15.5046 34.6193C14.8808 33.709 13.6747 33.5049 13.1664 34.094C12.658 34.6832 12.7677 35.8123 13.2348 36.7903C13.7018 37.7683 14.4648 38.6182 15.2488 39.3726C14.5684 40.1773 13.6448 40.8466 14.5153 42.0603Z" fill="#83E290"/>
<path d="M34.6775 70.2352C45.4165 70.2352 54.1223 69.3112 54.1223 68.1713C54.1223 67.0315 45.4165 66.1074 34.6775 66.1074C23.9384 66.1074 15.2327 67.0315 15.2327 68.1713C15.2327 69.3112 23.9384 70.2352 34.6775 70.2352Z" fill="#A596EE"/>
<path d="M59.9541 51.7652C58.4714 55.4211 56.0056 58.7588 52.8327 61.2665C46.9539 65.8829 39.4299 67.556 32.1244 67.5804C26.3337 67.6013 21.8498 66.5937 18.4454 65.1624C14.1197 63.3671 10.1736 60.314 7.67709 56.1617C6.58414 54.342 5.8479 52.2903 5.37617 50.1531C4.7683 47.3874 4.56703 44.1901 4.66289 41.4455C4.6974 40.4207 5.10601 40.3189 6.04346 40.5906C9.2909 41.3386 12.3337 43.1431 15.6153 43.1431C18.5222 43.4859 22.1393 43.5217 25.5438 43.5217C37.5512 43.5942 47.4844 43.5156 58.6886 40.9937C59.931 40.7006 60.9665 40.4807 61.4152 41.6776C62.1914 43.7372 60.7138 49.8902 59.9541 51.7652Z" fill="#FFD04D"/>
<g opacity="0.61">
<path d="M59.9541 51.7652C58.4714 55.4211 56.0056 58.7588 52.8327 61.2665C46.9538 65.8829 39.4299 67.5561 32.1244 67.5804C28.7305 67.5926 25.3022 67.263 22.0234 66.3714C23.9101 65.773 25.6933 64.9059 27.1889 63.5503C29.8235 61.1567 31.135 56.7356 29.1792 53.6947C27.8562 51.6552 25.4748 50.7637 23.2658 49.9821C10.0926 45.3439 8.3068 44.8895 4.65136 43.4362C4.63985 42.7644 4.63985 42.105 4.66288 41.4455C4.69235 40.5704 4.99612 40.361 5.67529 40.5051C8.96743 41.1412 12.1341 43.1431 15.6153 43.1431C18.5222 43.4859 22.1393 43.5217 25.5438 43.5217C37.3239 44.4295 47.7532 43.4551 58.6886 40.9937C59.931 40.7006 60.9665 40.4807 61.4152 41.6776C62.1914 43.7372 60.7137 49.8902 59.9541 51.7652Z" fill="#F4B503"/>
</g>
<path d="M10.6566 43.0739C9.0166 36.8624 8.52639 30.8772 9.20267 25.284C9.6416 21.6613 10.9512 14.8469 14.8002 9.9086C21.7656 0.977417 31.8736 -2.44302 44.0057 1.82927C49.9709 3.92783 54.5105 8.75751 57.4692 14.9217C57.8085 15.6286 57.8883 16.2962 57.0003 16.656C56.7043 16.7759 55.9636 16.9319 55.6693 16.7421C55.4341 16.5905 55.298 16.0258 55.1753 15.7743C52.496 10.2799 48.4601 5.95689 43.1851 4.10114C32.0963 0.195683 23.0746 3.25004 16.7348 11.3808C13.2437 15.8597 12.0366 22.1936 11.6287 25.5691C10.9894 30.8618 11.457 36.5468 13.0206 42.4662L10.6566 43.0739Z" fill="#FCC45C"/>
<path d="M44.1831 45.1535C19.1297 44.821 16.7073 44.9303 12.3165 44.1721C10.5742 43.8713 2.70582 42.1814 3.98822 40.0368C4.44016 39.281 5.69274 38.9564 6.79106 39.0468C7.88937 39.1371 8.88695 39.546 9.88792 39.8967C15.8678 41.9918 22.7303 41.7215 29.3288 41.8526C39.4787 42.0543 50.0456 42.6218 59.1508 39.2537C59.8162 39.0075 60.5442 38.7358 61.2665 38.8636C62.4911 39.0803 62.4221 40.421 62.1294 41.1033C61.7354 42.0216 60.7433 42.7498 59.6547 43.2282C55.0188 45.2658 49.2811 45.2211 44.1831 45.1535Z" fill="#FFD04D"/>
<path d="M29.054 65.6302C25.4942 61.4647 21.7591 57.368 17.9523 53.4552C17.8446 53.3448 17.8424 53.1632 17.9459 53.0494C18.0494 52.9357 18.2205 52.9334 18.3282 53.0427C22.1435 56.9645 25.8871 61.0695 29.4553 65.2446C29.6943 65.5237 29.2977 65.9118 29.054 65.6302Z" fill="#F4B503"/>
<path d="M40.6477 63.5021C38.9117 62.0095 36.3414 59.6582 33.8555 57.3837C31.3687 55.1087 28.7984 52.7558 27.0655 51.2671C26.9493 51.1673 26.9313 50.9868 27.0253 50.8635C27.1214 50.7397 27.2914 50.7217 27.4055 50.8209C30.8642 53.7925 37.5166 60.0719 40.9878 63.0559C41.1039 63.1557 41.1219 63.3362 41.0279 63.4595C40.9323 63.5838 40.7615 63.601 40.6477 63.5021Z" fill="#F4B503"/>
<path d="M20.5606 63.1635C20.4972 63.02 20.5553 62.8491 20.6904 62.7818C25.9018 60.1834 30.9843 57.1607 35.7986 53.796C35.9232 53.7103 36.0911 53.745 36.1735 53.8779C36.2559 54.0107 36.221 54.1884 36.0964 54.2758C31.2599 57.655 26.1542 60.6912 20.9207 63.3008C20.7857 63.3684 20.6249 63.3071 20.5606 63.1635Z" fill="#F4B503"/>
<path d="M33.3666 61.8609L41.3416 56.6859C41.6513 56.4905 41.9264 56.9782 41.6246 57.1758L33.6497 62.3508C33.343 62.5484 33.0634 62.0594 33.3666 61.8609Z" fill="#F4B503"/>
<path d="M4.42592 41.7129C4.40269 41.5566 4.50407 41.4097 4.65191 41.3856C6.26442 41.1205 7.81568 40.5751 9.26134 39.7652C9.39334 39.694 9.55702 39.7445 9.62566 39.8852C9.69536 40.0253 9.64573 40.199 9.51267 40.273C8.01421 41.1126 6.40698 41.6776 4.73427 41.9528C4.58691 41.9769 4.4492 41.8692 4.42592 41.7129Z" fill="#F4B503"/>
<path d="M9.97311 44.1157C9.92771 43.965 10.0059 43.8036 10.1484 43.7553C12.0756 43.0985 13.9384 42.2106 15.685 41.1166C15.9996 40.9265 16.2637 41.4204 15.9596 41.6109C14.1792 42.7268 12.2794 43.632 10.3131 44.3013C10.1729 44.3499 10.0191 44.2678 9.97311 44.1157Z" fill="#F4B503"/>
<path d="M17.6016 45.0714C17.5288 44.9335 17.5742 44.7586 17.7041 44.6807C19.0251 43.8916 20.2585 42.9348 21.3715 41.8374C21.4814 41.7286 21.6524 41.737 21.7538 41.8519C21.8552 41.9685 21.8488 42.1501 21.739 42.2577C20.5954 43.386 19.3271 44.3697 17.9702 45.1807C17.8399 45.2585 17.6749 45.2096 17.6016 45.0714Z" fill="#F4B503"/>
<path d="M23.4877 44.697C24.7359 44.2968 25.8564 43.4017 26.5639 42.2403C26.6452 42.1064 26.8131 42.0694 26.9377 42.1552C27.0634 42.2415 27.0993 42.4191 27.018 42.552C26.2418 43.8254 25.0126 44.8074 23.644 45.2463C23.2969 45.3568 23.1495 44.806 23.4877 44.697Z" fill="#F4B503"/>
<path d="M28.8965 45.7502C28.8258 45.6112 28.8743 45.4368 29.0053 45.3612C30.1204 44.7188 31.0719 43.7133 31.6833 42.5301C31.8552 42.196 32.3282 42.4733 32.1564 42.8059C31.4964 44.0849 30.4689 45.1712 29.2629 45.8656C29.1305 45.9413 28.9669 45.8889 28.8965 45.7502Z" fill="#F4B503"/>
<path d="M34.4121 45.3331C34.354 45.1874 34.4195 45.0187 34.5567 44.9576C35.8356 44.387 36.9581 43.3938 37.7184 42.1602C37.7997 42.0279 37.9687 41.9921 38.0922 42.0767C38.2168 42.1636 38.2527 42.3412 38.1704 42.4741C37.353 43.8024 36.1439 44.8724 34.7658 45.4867C34.6302 45.5475 34.4703 45.481 34.4121 45.3331Z" fill="#F4B503"/>
<path d="M40.5822 45.7328C40.504 45.5977 40.5442 45.4206 40.6709 45.3382C41.7776 44.6174 42.5854 43.4353 42.8864 42.0952C42.9715 41.72 43.4948 41.8636 43.4123 42.2286C43.0786 43.7156 42.182 45.0277 40.9539 45.827C40.8279 45.9097 40.6604 45.8685 40.5822 45.7328Z" fill="#F4B503"/>
<path d="M46.9109 45.2009C48.1971 44.4924 49.1739 43.1153 49.4611 41.6081C49.4917 41.4529 49.6354 41.352 49.78 41.3834C49.9258 41.4147 50.0208 41.5661 49.9912 41.7213C49.6681 43.4208 48.6089 44.9117 47.1601 45.7098C46.8454 45.8856 46.594 45.3758 46.9109 45.2009Z" fill="#F4B503"/>
<path d="M53.8541 44.7323C54.9028 43.3075 55.4635 42.2773 55.6156 40.6037C55.6515 40.2193 56.1869 40.2823 56.1541 40.6586C55.9894 42.4634 55.3684 43.6068 54.2808 45.0854C54.0575 45.3851 53.6352 45.0302 53.8541 44.7323Z" fill="#F4B503"/>
<path d="M58.6196 44.3175C58.3975 44.3175 58.2695 44.0469 58.4042 43.8568C59.2976 42.608 59.7664 40.9933 59.6904 39.4272C59.6732 39.059 60.2126 39.0025 60.2311 39.3981C60.3124 41.0975 59.8045 42.849 58.835 44.2043C58.7822 44.2783 58.7009 44.3175 58.6196 44.3175Z" fill="#F4B503"/>
<path d="M50.9408 23.4007C50.8156 23.6364 50.8375 23.9155 51.0011 24.123C52.4561 25.9681 52.5949 28.8892 51.2591 30.8495C51.2443 29.8246 51.0736 28.8026 50.7573 27.8342C50.6746 27.5812 50.3464 27.5675 50.2274 27.8036C49.9319 28.3895 49.5107 28.981 49.0784 29.3347C49.206 28.1149 49.156 26.5933 48.7211 25.4564C48.6547 25.2828 48.4467 25.2197 48.2989 25.3222L46.0105 27.5028C46.4014 26.6771 47.351 24.5234 46.6844 23.9291C45.7884 23.1302 44.3922 24.4255 43.2935 23.9984C43.704 22.9147 44.8781 21.7423 46.0582 21.8787C46.3769 21.9155 46.6841 22.0259 47.0006 22.0803C47.6998 22.2006 48.4656 22.0188 48.9739 21.495C49.4224 21.0328 49.9342 19.1481 48.9116 18.9902C48.7499 18.9652 48.585 19.0118 48.4224 18.9951C48.0967 18.9616 47.8201 18.6407 47.8176 18.2934C47.813 17.6775 48.5858 17.4097 49.0605 17.388C50.5689 17.3193 51.5803 19.4446 51.5409 20.7964C51.5134 21.7404 51.3625 22.6067 50.9408 23.4007Z" fill="#55CD69"/>
<path d="M57.7947 11.708C56.7698 11.6467 56.1322 12.8077 56.6673 13.1767C56.7996 13.268 56.9962 13.2534 57.0977 13.125C57.1474 13.0622 57.1708 12.9813 57.2076 12.9091C57.4732 12.3873 58.0533 13.5828 58.1305 13.7833C58.9141 15.817 55.728 15.647 55.363 17.5484C55.3376 17.6809 55.3354 17.8345 55.4223 17.9334C55.6489 18.1914 56.2482 17.3323 56.3917 17.1801C56.5384 17.3734 56.3987 17.7168 56.5757 17.879C56.6944 17.9877 56.8876 17.9322 56.9986 17.8147C57.1943 17.6075 57.2518 17.173 57.5168 17.1567C57.6832 17.1465 57.7956 17.333 57.8502 17.5003C58.0399 18.0808 58.327 18.0477 58.5375 17.7932C58.7404 17.548 58.7893 17.1027 59.1174 17.0132C59.3278 16.9558 59.5369 17.1082 59.6868 17.2751C59.8366 17.442 59.9739 17.6405 60.1786 17.7175C60.1511 17.5005 60.1244 17.2743 60.1908 17.067C60.2572 16.8598 60.4472 16.6795 60.6513 16.7102C60.8718 16.7435 61.0858 17.0357 61.2399 17.1936C61.4803 17.4398 61.7184 17.6884 61.9577 17.9358C62.1055 17.0625 61.6111 15.9716 60.0894 15.3681C59.5638 15.1596 59.5723 14.9917 59.6704 14.44C59.8857 13.2292 58.9856 11.7793 57.7947 11.708Z" fill="#55CD69"/>
<path d="M65.6569 21.1029C65.5077 20.4002 65.0896 19.7628 64.4579 19.5134C63.4965 19.1338 62.5659 20.0457 62.9722 20.5631C63.0733 20.6918 63.2652 20.7396 63.3978 20.6487C63.4627 20.6042 63.5077 20.5343 63.5629 20.4768C63.9617 20.0616 64.1835 21.3857 64.2015 21.6014C64.3817 23.7581 61.3684 22.6662 60.51 24.3311C60.4488 24.4497 60.4041 24.5958 60.4595 24.7175C60.6043 25.035 61.4158 24.4021 61.5953 24.3016C61.6816 24.5323 61.4526 24.8166 61.5767 25.027C61.6598 25.1681 61.8599 25.1756 61.9986 25.0982C62.2432 24.9616 62.419 24.5645 62.6767 24.632C62.8386 24.6744 62.894 24.8878 62.8997 25.0647C62.9195 25.6788 63.2029 25.7372 63.4748 25.56C63.7369 25.3893 63.9075 24.9792 64.2458 24.9966C64.4628 25.0077 64.6202 25.2189 64.717 25.4253C64.8137 25.6318 64.8896 25.8644 65.0638 26.0021C65.0979 25.7862 65.1353 25.5617 65.2564 25.3845C65.3775 25.2073 65.6091 25.0946 65.7957 25.188C65.9767 25.2787 65.9925 25.3842 66.7028 26.7684C67.0869 25.9804 66.9181 24.7831 65.6321 23.7296C65.5005 23.6217 65.3555 23.5064 65.3138 23.3355C65.2612 23.1198 65.3919 22.9085 65.49 22.7115C65.7262 22.2372 65.7731 21.6502 65.6569 21.1029Z" fill="#55CD69"/>
<path d="M17.7335 40.9742C16.2859 33.4477 18.5952 28.3295 18.988 26.1929C19.1992 25.0355 19.1654 24.026 18.8866 23.1932C18.8359 23.0435 18.9099 22.8793 19.0503 22.8266C19.1939 22.7683 19.346 22.8518 19.3956 23.0003C20.1146 25.143 19.2487 27.3849 18.6997 29.3984C17.6859 33.1105 17.536 37.0737 18.2636 40.8599C18.2931 41.0151 18.1992 41.1665 18.0524 41.1984C17.91 41.2295 17.7641 41.1324 17.7335 40.9742Z" fill="#55CD69"/>
<path d="M17.8033 30.493C17.4115 30.0037 17.1307 29.4141 16.9923 28.788C16.9575 28.6339 17.0483 28.4792 17.193 28.4433C17.3461 28.4052 17.4844 28.5033 17.5182 28.6568C17.6375 29.1944 17.8783 29.701 18.2152 30.1208C18.4466 30.4093 18.0369 30.7823 17.8033 30.493Z" fill="#55CD69"/>
<path d="M17.5584 35.8788C17.2145 35.8425 17.2396 35.2886 17.6112 35.3071C18.1635 35.3749 18.7432 34.9534 18.9037 34.3901C18.9459 34.2399 19.0927 34.1536 19.2406 34.1984C19.3831 34.2444 19.4644 34.4047 19.4211 34.556C19.1945 35.3536 18.406 35.9597 17.5584 35.8788Z" fill="#55CD69"/>
<path d="M17.4031 39.2608C16.685 39.0382 16.0736 38.5086 15.7261 37.8068C15.6575 37.6667 15.7082 37.493 15.8402 37.4195C15.9732 37.3461 16.1359 37.3994 16.2056 37.54C16.4812 38.0961 16.9849 38.5338 17.5551 38.7104C17.6977 38.7546 17.7801 38.9138 17.7389 39.0657C17.697 39.2167 17.5484 39.3058 17.4031 39.2608Z" fill="#55CD69"/>
<path d="M18.9744 28.6523C18.6237 28.6523 18.6132 28.0929 18.9638 28.0784C19.2247 28.0677 19.477 27.9063 19.6069 27.667C19.6819 27.5285 19.8498 27.4831 19.9765 27.5622C20.1064 27.6418 20.1497 27.8172 20.0758 27.9545C19.854 28.3597 19.4264 28.6338 18.985 28.6523C18.9818 28.6523 18.9776 28.6523 18.9744 28.6523Z" fill="#55CD69"/>
<path d="M19.061 25.6044C18.6006 25.4161 18.2838 24.9189 18.2901 24.3948C18.2922 24.2379 18.4126 24.1118 18.5605 24.1118H18.5647C18.7136 24.114 18.8329 24.2441 18.8308 24.4027C18.8266 24.6818 19.0093 24.9682 19.2553 25.0685C19.3947 25.1257 19.4644 25.2916 19.4105 25.4396C19.3568 25.588 19.1998 25.6608 19.061 25.6044Z" fill="#55CD69"/>
<path d="M5.32559 32.0837C5.19465 32.0086 5.14607 31.8343 5.21682 31.6953C5.28758 31.5557 5.45126 31.5036 5.58326 31.5792C6.10281 31.8774 6.7797 31.8819 7.30348 31.5893C7.43548 31.5159 7.59916 31.5692 7.66885 31.7098C7.7375 31.85 7.68681 32.0232 7.55481 32.0971C6.87449 32.4784 6.01948 32.4811 5.32559 32.0837Z" fill="#3ABA4D"/>
<path d="M5.71318 29.7761C5.70474 29.7761 5.69523 29.7756 5.68573 29.7744C5.53683 29.7582 5.42912 29.6175 5.4439 29.4594C5.48826 29.0099 5.36048 28.5492 5.09648 28.1944C5.00355 28.0705 5.02256 27.8901 5.13978 27.7914C5.25594 27.6933 5.42806 27.7135 5.51888 27.8379C5.87158 28.3082 6.04054 28.9214 5.98246 29.5189C5.96768 29.6663 5.85046 29.7761 5.71318 29.7761Z" fill="#3ABA4D"/>
<path d="M12.9964 39.7854C12.8559 39.7327 12.782 39.569 12.8306 39.4194C12.9193 39.1543 12.9446 38.8667 12.9045 38.5887C12.8515 38.2147 13.385 38.1238 13.4388 38.5024C13.4916 38.8729 13.4579 39.2563 13.3417 39.61C13.2916 39.761 13.1346 39.8378 12.9964 39.7854Z" fill="#3ABA4D"/>
<g opacity="0.22">
<path d="M35.637 31.6118C37.4591 30.9776 40.7125 29.9312 42.2143 31.5814C42.7828 32.206 43.0406 33.1095 42.8925 33.9582C42.6069 35.5951 41.0039 36.6708 39.4511 37.2192C38.3439 37.6103 37.1562 37.8419 36.0107 37.6509C34.8652 37.4598 33.7669 36.7958 33.2516 35.7475C32.2368 33.6833 33.8494 32.234 35.637 31.6118Z" fill="white"/>
</g>
<g opacity="0.22">
<path d="M29.1853 36.6373C30.4956 36.6373 31.5578 35.8513 31.5578 34.8817C31.5578 33.9121 30.4956 33.1261 29.1853 33.1261C27.875 33.1261 26.8127 33.9121 26.8127 34.8817C26.8127 35.8513 27.875 36.6373 29.1853 36.6373Z" fill="white"/>
</g>
<g opacity="0.22">
<path d="M14.6784 52.3278C15.0262 53.4747 15.1491 54.6979 15.0371 55.8969C14.9887 56.4145 14.8833 56.9578 14.5505 57.3394C14.1735 57.7717 13.5617 57.9086 13.0161 57.8016C12.4705 57.6946 11.9816 57.3757 11.5463 57.0105C9.46505 55.2648 8.39194 52.2618 8.85882 49.49C9.05194 48.3435 9.95957 48.1624 11.0556 48.2148C12.1517 48.2671 13.1701 48.9133 13.8973 49.7855C14.6244 50.6577 14.3421 51.2191 14.6784 52.3278Z" fill="white"/>
</g>
<g opacity="0.22">
<path d="M56.4738 35.6457C56.7307 33.1021 59.8048 31.5569 59.6509 34.2095C59.5901 35.2584 59.2399 36.2865 58.6546 37.1341C58.3924 37.5139 58.0705 37.8679 57.6587 38.043C57.2469 38.2181 56.7309 38.1775 56.4153 37.8466C56.0997 37.5156 56.092 36.8766 56.4583 36.611" fill="white"/>
</g>
</svg>
